<svg width="289" height="100" viewBox="0 0 289 100" fill="none" xmlns="http://www.w3.org/2000/svg">
<g clip-path="url(#clip0_3_34)">
<path d="M85.915 33.645V72.255L53.7075 88.375V49.765L85.915 33.645ZM50.4575 44.11L82.5675 28.055L50.4575 12L18.3475 28.055L50.4575 44.11ZM47.2075 49.765L15 33.645V72.255L47.2075 88.375V49.765Z" fill="url(#paint0_radial_3_34)"/>
</g>
<path d="M116.955 37.775C115.095 37.775 113.64 38.3 112.59 39.35C111.54 40.37 110.76 42.02 110.25 44.3C110.22 44.36 110.115 44.39 109.935 44.39C109.785 44.39 109.71 44.345 109.71 44.255C109.83 43.415 109.965 42.05 110.115 40.16C110.265 38.27 110.34 36.845 110.34 35.885C110.34 35.735 110.43 35.66 110.61 35.66C110.79 35.66 110.88 35.735 110.88 35.885C110.88 36.545 111.705 36.875 113.355 36.875C115.935 36.965 118.95 37.01 122.4 37.01C124.17 37.01 126.045 36.98 128.025 36.92L131.085 36.875C132.195 36.875 133.005 36.8 133.515 36.65C134.025 36.5 134.355 36.2 134.505 35.75C134.535 35.63 134.625 35.57 134.775 35.57C134.955 35.57 135.045 35.63 135.045 35.75C134.955 36.59 134.85 37.94 134.73 39.8C134.64 41.66 134.595 43.145 134.595 44.255C134.595 44.345 134.505 44.39 134.325 44.39C134.175 44.39 134.1 44.345 134.1 44.255C133.89 41.945 133.29 40.295 132.3 39.305C131.31 38.285 129.84 37.775 127.89 37.775C126.78 37.775 125.985 37.85 125.505 38C125.025 38.12 124.695 38.375 124.515 38.765C124.335 39.125 124.245 39.74 124.245 40.61V61.355C124.245 62.285 124.335 62.96 124.515 63.38C124.725 63.8 125.115 64.085 125.685 64.235C126.255 64.385 127.17 64.46 128.43 64.46C128.49 64.46 128.52 64.55 128.52 64.73C128.52 64.91 128.49 65 128.43 65C127.38 65 126.555 64.985 125.955 64.955L122.4 64.91L118.935 64.955C118.335 64.985 117.495 65 116.415 65C116.325 65 116.28 64.91 116.28 64.73C116.28 64.55 116.325 64.46 116.415 64.46C117.645 64.46 118.545 64.385 119.115 64.235C119.715 64.085 120.12 63.8 120.33 63.38C120.54 62.93 120.645 62.255 120.645 61.355V40.52C120.645 39.68 120.555 39.08 120.375 38.72C120.195 38.33 119.85 38.075 119.34 37.955C118.86 37.835 118.065 37.775 116.955 37.775ZM138.857 65C138.767 65 138.722 64.91 138.722 64.73C138.722 64.55 138.767 64.46 138.857 64.46C139.967 64.46 140.687 64.265 141.017 63.875C141.377 63.455 141.557 62.615 141.557 61.355V53.03C141.557 51.98 141.452 51.23 141.242 50.78C141.032 50.3 140.657 50.06 140.117 50.06C139.637 50.06 138.992 50.255 138.182 50.645H138.137C138.017 50.645 137.927 50.57 137.867 50.42C137.807 50.24 137.837 50.135 137.957 50.105L144.077 47.27L144.257 47.225C144.347 47.225 144.437 47.27 144.527 47.36C144.647 47.45 144.707 47.555 144.707 47.675C144.707 47.885 144.692 48.485 144.662 49.475C144.632 50.465 144.617 51.635 144.617 52.985V61.355C144.617 62.615 144.782 63.455 145.112 63.875C145.472 64.265 146.207 64.46 147.317 64.46C147.407 64.46 147.452 64.55 147.452 64.73C147.452 64.91 147.407 65 147.317 65C146.597 65 146.012 64.985 145.562 64.955L143.087 64.91L140.612 64.955C140.162 64.985 139.577 65 138.857 65ZM142.817 42.185C142.127 42.185 141.572 42.005 141.152 41.645C140.762 41.255 140.567 40.715 140.567 40.025C140.567 39.365 140.762 38.855 141.152 38.495C141.572 38.135 142.127 37.955 142.817 37.955C143.477 37.955 143.987 38.135 144.347 38.495C144.737 38.855 144.932 39.365 144.932 40.025C144.932 40.715 144.752 41.255 144.392 41.645C144.032 42.005 143.507 42.185 142.817 42.185ZM162.821 65C162.731 65 162.686 64.91 162.686 64.73C162.686 64.55 162.731 64.46 162.821 64.46C163.571 64.46 164.126 64.385 164.486 64.235C164.876 64.055 165.131 63.755 165.251 63.335C165.401 62.885 165.476 62.225 165.476 61.355V54.29C165.476 52.55 165.161 51.275 164.531 50.465C163.901 49.655 162.896 49.25 161.516 49.25C160.466 49.25 159.401 49.565 158.321 50.195C157.271 50.825 156.371 51.665 155.621 52.715L155.441 52.175C157.961 48.755 160.601 47.045 163.361 47.045C165.011 47.045 166.286 47.54 167.186 48.53C168.116 49.49 168.581 50.84 168.581 52.58V61.355C168.581 62.225 168.641 62.885 168.761 63.335C168.911 63.755 169.166 64.055 169.526 64.235C169.916 64.385 170.501 64.46 171.281 64.46C171.371 64.46 171.416 64.55 171.416 64.73C171.416 64.91 171.371 65 171.281 65C170.561 65 169.976 64.985 169.526 64.955L167.051 64.91L164.576 64.955C164.126 64.985 163.541 65 162.821 65ZM150.716 65C150.626 65 150.581 64.91 150.581 64.73C150.581 64.55 150.626 64.46 150.716 64.46C151.466 64.46 152.021 64.385 152.381 64.235C152.771 64.055 153.026 63.755 153.146 63.335C153.296 62.885 153.371 62.225 153.371 61.355V52.58C153.371 51.59 153.251 50.885 153.011 50.465C152.801 50.015 152.426 49.79 151.886 49.79C151.376 49.79 150.581 50 149.501 50.42H149.411C149.321 50.42 149.246 50.345 149.186 50.195C149.156 50.045 149.186 49.955 149.276 49.925L154.811 47.27L155.081 47.225C155.381 47.225 155.681 47.585 155.981 48.305C156.311 48.995 156.476 49.91 156.476 51.05V61.355C156.476 62.225 156.536 62.885 156.656 63.335C156.806 63.755 157.061 64.055 157.421 64.235C157.811 64.385 158.396 64.46 159.176 64.46C159.266 64.46 159.311 64.55 159.311 64.73C159.311 64.91 159.266 65 159.176 65C158.456 65 157.871 64.985 157.421 64.955L154.946 64.91L152.426 64.955C152.006 64.985 151.436 65 150.716 65ZM191.69 47.63C191.78 47.63 191.825 47.72 191.825 47.9C191.825 48.08 191.78 48.17 191.69 48.17C190.88 48.17 190.175 48.485 189.575 49.115C189.005 49.715 188.465 50.69 187.955 52.04L182.6 66.26C181.52 69.14 180.485 71.405 179.495 73.055C178.505 74.705 177.485 75.875 176.435 76.565C175.415 77.285 174.26 77.645 172.97 77.645C172.25 77.645 171.665 77.48 171.215 77.15C170.765 76.82 170.54 76.355 170.54 75.755C170.54 75.245 170.705 74.855 171.035 74.585C171.335 74.315 171.71 74.18 172.16 74.18C172.79 74.18 173.39 74.375 173.96 74.765C174.02 74.795 174.185 74.885 174.455 75.035C174.755 75.185 175.115 75.26 175.535 75.26C176.285 75.26 176.975 74.93 177.605 74.27C178.235 73.61 178.91 72.515 179.63 70.985C180.38 69.455 181.28 67.28 182.33 64.46L182.285 66.125L174.995 51.365C174.335 50.075 173.81 49.22 173.42 48.8C173.06 48.38 172.61 48.17 172.07 48.17C171.98 48.17 171.935 48.08 171.935 47.9C171.935 47.72 171.98 47.63 172.07 47.63C172.79 47.63 173.33 47.645 173.69 47.675L175.31 47.72L178.235 47.675C178.685 47.645 179.3 47.63 180.08 47.63C180.14 47.63 180.17 47.72 180.17 47.9C180.17 48.08 180.14 48.17 180.08 48.17C179.24 48.17 178.61 48.245 178.19 48.395C177.77 48.545 177.56 48.8 177.56 49.16C177.56 49.31 177.635 49.565 177.785 49.925L183.86 62.3L182.6 64.415L186.875 52.13C187.115 51.35 187.235 50.75 187.235 50.33C187.235 49.58 186.965 49.04 186.425 48.71C185.915 48.35 185.105 48.17 183.995 48.17C183.935 48.17 183.905 48.08 183.905 47.9C183.905 47.72 183.935 47.63 183.995 47.63C184.805 47.63 185.42 47.645 185.84 47.675L188.54 47.72L190.25 47.675C190.55 47.645 191.03 47.63 191.69 47.63ZM210.348 36.38C212.088 36.38 213.618 36.515 214.938 36.785C216.288 37.025 217.548 37.43 218.718 38C218.928 38.09 219.063 38.195 219.123 38.315C219.183 38.405 219.228 38.63 219.258 38.99L219.843 44.615C219.843 44.705 219.753 44.765 219.573 44.795C219.423 44.825 219.333 44.78 219.303 44.66C217.773 39.65 214.683 37.145 210.033 37.145C207.663 37.145 205.563 37.7 203.733 38.81C201.903 39.92 200.478 41.495 199.458 43.535C198.468 45.575 197.973 47.96 197.973 50.69C197.973 53.36 198.513 55.775 199.593 57.935C200.703 60.065 202.188 61.745 204.048 62.975C205.938 64.175 208.008 64.775 210.258 64.775C212.598 64.775 214.518 64.19 216.018 63.02C217.518 61.82 218.733 59.975 219.663 57.485C219.693 57.425 219.768 57.395 219.888 57.395C219.948 57.395 220.008 57.425 220.068 57.485C220.158 57.515 220.203 57.545 220.203 57.575L219.708 62.705C219.678 63.065 219.633 63.29 219.573 63.38C219.513 63.47 219.363 63.575 219.123 63.695C217.623 64.385 216.183 64.865 214.803 65.135C213.423 65.435 211.908 65.585 210.258 65.585C207.078 65.585 204.243 64.97 201.753 63.74C199.263 62.48 197.313 60.74 195.903 58.52C194.523 56.3 193.833 53.75 193.833 50.87C193.833 48.05 194.538 45.545 195.948 43.355C197.388 41.135 199.368 39.425 201.888 38.225C204.408 36.995 207.228 36.38 210.348 36.38ZM230.715 65.405C229.185 65.405 227.97 64.925 227.07 63.965C226.2 62.975 225.765 61.61 225.765 59.87V53.03C225.765 51.92 225.66 51.11 225.45 50.6C225.24 50.09 224.895 49.835 224.415 49.835C224.085 49.835 223.62 49.97 223.02 50.24H222.93C222.84 50.24 222.765 50.165 222.705 50.015C222.675 49.865 222.705 49.775 222.795 49.745L228.105 47.27L228.285 47.225C228.375 47.225 228.48 47.27 228.6 47.36C228.75 47.45 228.825 47.555 228.825 47.675V58.16C228.825 59.9 229.125 61.19 229.725 62.03C230.355 62.84 231.3 63.245 232.56 63.245C233.61 63.245 234.675 62.945 235.755 62.345C236.835 61.715 237.75 60.875 238.5 59.825L238.725 60.32C236.205 63.71 233.535 65.405 230.715 65.405ZM240.705 60.05C240.705 61.07 240.81 61.805 241.02 62.255C241.26 62.705 241.65 62.93 242.19 62.93C242.64 62.93 243.375 62.72 244.395 62.3H244.44C244.56 62.3 244.65 62.375 244.71 62.525C244.77 62.645 244.755 62.735 244.665 62.795L239.085 65.45L238.905 65.495C238.605 65.495 238.32 65.135 238.05 64.415C237.78 63.695 237.645 62.75 237.645 61.58V53.03C237.645 51.92 237.54 51.11 237.33 50.6C237.12 50.09 236.775 49.835 236.295 49.835C235.965 49.835 235.485 49.97 234.855 50.24H234.765C234.675 50.24 234.615 50.165 234.585 50.015C234.555 49.865 234.585 49.775 234.675 49.745L239.985 47.27L240.165 47.225C240.285 47.225 240.405 47.27 240.525 47.36C240.645 47.45 240.705 47.555 240.705 47.675V60.05ZM256.368 65.585C253.758 65.585 251.463 64.73 249.483 63.02L251.868 58.61C251.868 60.02 252.183 61.19 252.813 62.12C253.443 63.02 254.193 63.68 255.063 64.1C255.963 64.52 256.833 64.73 257.673 64.73C259.263 64.73 260.493 64.055 261.363 62.705C262.263 61.355 262.713 59.45 262.713 56.99C262.713 54.32 262.203 52.295 261.183 50.915C260.193 49.505 258.873 48.8 257.223 48.8C256.173 48.8 255.168 49.085 254.208 49.655C253.248 50.225 252.273 51.005 251.283 51.995L250.923 51.68C252.183 50.27 253.413 49.145 254.613 48.305C255.843 47.465 257.268 47.045 258.888 47.045C260.208 47.045 261.423 47.36 262.533 47.99C263.643 48.62 264.528 49.565 265.188 50.825C265.848 52.055 266.178 53.57 266.178 55.37C266.178 57.56 265.713 59.42 264.783 60.95C263.853 62.48 262.638 63.635 261.138 64.415C259.638 65.195 258.048 65.585 256.368 65.585ZM246.423 65.225C246.303 65.225 246.228 65.165 246.198 65.045C246.198 64.955 246.243 64.88 246.333 64.82C247.203 64.22 247.833 63.605 248.223 62.975C248.613 62.345 248.808 61.475 248.808 60.365V38.225C248.808 37.175 248.703 36.41 248.493 35.93C248.283 35.45 247.908 35.21 247.368 35.21C246.948 35.21 246.303 35.405 245.433 35.795H245.388C245.268 35.795 245.178 35.72 245.118 35.57C245.058 35.39 245.088 35.285 245.208 35.255L251.103 32.42L251.328 32.375C251.448 32.375 251.568 32.42 251.688 32.51C251.808 32.6 251.868 32.705 251.868 32.825V62.795L246.513 65.225H246.423ZM277.865 65.54C276.095 65.54 274.565 65.15 273.275 64.37C271.985 63.56 271.01 62.495 270.35 61.175C269.69 59.825 269.36 58.385 269.36 56.855C269.36 55.085 269.78 53.465 270.62 51.995C271.49 50.525 272.66 49.37 274.13 48.53C275.6 47.66 277.235 47.225 279.035 47.225C280.805 47.225 282.155 47.675 283.085 48.575C284.015 49.445 284.48 50.705 284.48 52.355C284.48 53.195 284.3 53.615 283.94 53.615H280.835C280.955 51.845 280.715 50.495 280.115 49.565C279.545 48.605 278.675 48.125 277.505 48.125C276.035 48.125 274.88 48.755 274.04 50.015C273.23 51.245 272.825 52.94 272.825 55.1C272.825 57.74 273.425 59.84 274.625 61.4C275.855 62.96 277.595 63.74 279.845 63.74C280.715 63.74 281.465 63.635 282.095 63.425C282.725 63.185 283.46 62.825 284.3 62.345H284.345C284.435 62.345 284.51 62.405 284.57 62.525C284.66 62.615 284.675 62.705 284.615 62.795C283.535 63.755 282.455 64.46 281.375 64.91C280.295 65.33 279.125 65.54 277.865 65.54ZM271.745 52.985L281.825 52.805V53.615L271.79 53.66L271.745 52.985Z" fill="white"/>
<defs>
<radialGradient id="paint0_radial_3_34" cx="0" cy="0" r="1" gradientUnits="userSpaceOnUse" gradientTransform="translate(50.4575 50.1875) rotate(90) scale(38.1875 35.4575)">
<stop stop-color="#C9AD7F"/>
<stop offset="0.5" stop-color="#E0D2AE"/>
<stop offset="1" stop-color="white"/>
</radialGradient>
<clipPath id="clip0_3_34">
<rect width="100" height="100" fill="white"/>
</clipPath>
</defs>
</svg>
