<svg width="131" height="45" viewBox="0 0 131 45" fill="none" xmlns="http://www.w3.org/2000/svg">
<path d="M38.6618 15.1403V32.5148L24.1684 39.7688V22.3943L38.6618 15.1403ZM22.7059 19.8495L37.1554 12.6248L22.7059 5.40002L8.25637 12.6248L22.7059 19.8495ZM21.2434 22.3943L6.75 15.1403V32.5148L21.2434 39.7688V22.3943Z" fill="url(#paint0_radial_3_35)"/>
<path d="M60.3124 15.3974L60.4606 18.5405H60.0851C60.0126 17.987 59.9137 17.5917 59.7885 17.3544C59.5843 16.9723 59.3108 16.6922 58.9682 16.5143C58.6321 16.3298 58.1874 16.2376 57.6339 16.2376H55.746V26.4773C55.746 27.3009 55.835 27.8149 56.0129 28.0192C56.2633 28.2959 56.6488 28.4343 57.1693 28.4343H57.6339V28.8H51.9506V28.4343H52.425C52.9917 28.4343 53.3937 28.263 53.6309 27.9203C53.7758 27.7095 53.8483 27.2284 53.8483 26.4773V16.2376H52.2372C51.6113 16.2376 51.1665 16.2837 50.9029 16.3759C50.5603 16.5011 50.2671 16.7416 50.0233 17.0975C49.7795 17.4533 49.6345 17.9343 49.5884 18.5405H49.2128L49.3709 15.3974H60.3124ZM63.9101 14.7451C64.1869 14.7451 64.4208 14.8439 64.6119 15.0416C64.8096 15.2327 64.9084 15.4666 64.9084 15.7434C64.9084 16.0201 64.8096 16.2573 64.6119 16.455C64.4208 16.6527 64.1869 16.7515 63.9101 16.7515C63.6334 16.7515 63.3962 16.6527 63.1985 16.455C63.0008 16.2573 62.902 16.0201 62.902 15.7434C62.902 15.4666 62.9975 15.2327 63.1886 15.0416C63.3863 14.8439 63.6268 14.7451 63.9101 14.7451ZM64.7305 19.4795V26.754C64.7305 27.3207 64.77 27.6996 64.8491 27.8907C64.9348 28.0752 65.0567 28.2135 65.2148 28.3058C65.3795 28.398 65.676 28.4442 66.1044 28.4442V28.8H61.706V28.4442C62.1475 28.4442 62.444 28.4013 62.5956 28.3157C62.7471 28.23 62.8657 28.0883 62.9514 27.8907C63.0436 27.693 63.0898 27.3141 63.0898 26.754V23.265C63.0898 22.2832 63.0601 21.6473 63.0008 21.3574C62.9547 21.1466 62.8822 21.0016 62.7834 20.9225C62.6845 20.8369 62.5494 20.794 62.3781 20.794C62.1936 20.794 61.9696 20.8435 61.706 20.9423L61.5676 20.5865L64.2956 19.4795H64.7305ZM69.88 21.397C70.9409 20.1186 71.9523 19.4795 72.9144 19.4795C73.4085 19.4795 73.8336 19.6047 74.1894 19.8551C74.5452 20.0989 74.8285 20.5041 75.0394 21.0708C75.1844 21.4661 75.2568 22.0724 75.2568 22.8894V26.754C75.2568 27.3273 75.303 27.7161 75.3952 27.9203C75.4677 28.0851 75.583 28.2135 75.7411 28.3058C75.9059 28.398 76.2057 28.4442 76.6406 28.4442V28.8H72.1632V28.4442H72.351C72.7727 28.4442 73.0659 28.3816 73.2306 28.2564C73.402 28.1246 73.5206 27.9335 73.5865 27.6831C73.6128 27.5843 73.626 27.2746 73.626 26.754V23.0476C73.626 22.2239 73.5173 21.6276 73.2998 21.2586C73.089 20.883 72.7299 20.6952 72.2225 20.6952C71.4384 20.6952 70.6575 21.1235 69.88 21.9801V26.754C69.88 27.3668 69.9162 27.7457 69.9887 27.8907C70.081 28.0818 70.2062 28.2234 70.3643 28.3157C70.529 28.4013 70.8585 28.4442 71.3527 28.4442V28.8H66.8753V28.4442H67.073C67.5342 28.4442 67.8439 28.3289 68.0021 28.0982C68.1668 27.861 68.2492 27.4129 68.2492 26.754V23.3935C68.2492 22.3063 68.2228 21.644 68.1701 21.4068C68.124 21.1696 68.0482 21.0082 67.9428 20.9225C67.8439 20.8369 67.7088 20.794 67.5375 20.794C67.353 20.794 67.1323 20.8435 66.8753 20.9423L66.727 20.5865L69.455 19.4795H69.88V21.397ZM76.8481 19.7463H81.0686V20.112H80.861C80.5645 20.112 80.3405 20.1779 80.1889 20.3097C80.0439 20.4349 79.9715 20.5931 79.9715 20.7842C79.9715 21.0411 80.0802 21.397 80.2976 21.8516L82.5017 26.418L84.5279 21.4167C84.6399 21.1466 84.696 20.8797 84.696 20.6161C84.696 20.4975 84.6729 20.4086 84.6268 20.3493C84.5741 20.2768 84.4917 20.2208 84.3797 20.1812C84.2677 20.1351 84.07 20.112 83.7866 20.112V19.7463H86.732V20.112C86.4882 20.1384 86.3004 20.1911 86.1687 20.2702C86.0369 20.3493 85.8919 20.4975 85.7338 20.715C85.6745 20.8072 85.5624 21.0609 85.3977 21.476L81.711 30.5099C81.3552 31.3863 80.8874 32.0485 80.3075 32.4966C79.7342 32.9446 79.1807 33.1687 78.647 33.1687C78.2582 33.1687 77.9387 33.0567 77.6883 32.8326C77.4379 32.6086 77.3127 32.3516 77.3127 32.0617C77.3127 31.7849 77.4016 31.5609 77.5796 31.3896C77.7641 31.2248 78.0144 31.1425 78.3307 31.1425C78.5482 31.1425 78.8447 31.215 79.2203 31.3599C79.4838 31.4588 79.6486 31.5082 79.7145 31.5082C79.9122 31.5082 80.1263 31.406 80.3569 31.2018C80.5941 30.9975 80.8314 30.6022 81.0686 30.0157L81.711 28.4442L78.4592 21.6144C78.3604 21.4101 78.2022 21.1564 77.9848 20.8533C77.8201 20.6227 77.685 20.4679 77.5796 20.3888C77.428 20.2834 77.1842 20.1911 76.8481 20.112V19.7463ZM99.0375 15.091L99.3439 19.6475H99.0375C98.6289 18.2835 98.0458 17.3017 97.288 16.7021C96.5303 16.1025 95.621 15.8027 94.5601 15.8027C93.6705 15.8027 92.8666 16.03 92.1484 16.4847C91.4302 16.9327 90.8635 17.651 90.4484 18.6393C90.0398 19.6277 89.8356 20.8566 89.8356 22.326C89.8356 23.5385 90.03 24.5894 90.4187 25.479C90.8075 26.3685 91.3906 27.0505 92.1682 27.525C92.9523 27.9994 93.8451 28.2366 94.8467 28.2366C95.7165 28.2366 96.4841 28.0521 97.1497 27.6831C97.8152 27.3075 98.5466 26.5662 99.3439 25.4592L99.6503 25.6569C98.9782 26.8496 98.1941 27.7226 97.2979 28.2761C96.4018 28.8296 95.3376 29.1064 94.1054 29.1064C91.8848 29.1064 90.165 28.2827 88.946 26.6354C88.0367 25.4098 87.5821 23.9668 87.5821 22.3063C87.5821 20.9686 87.8819 19.7398 88.4815 18.6196C89.0811 17.4994 89.9048 16.6329 90.9525 16.0201C92.0067 15.4007 93.1566 15.091 94.4019 15.091C95.3706 15.091 96.326 15.3282 97.2683 15.8027C97.545 15.9476 97.7427 16.0201 97.8613 16.0201C98.0392 16.0201 98.1941 15.9575 98.3258 15.8323C98.4972 15.6544 98.6191 15.4073 98.6915 15.091H99.0375ZM108.921 19.7463V25.2319C108.921 26.2796 108.944 26.922 108.991 27.1593C109.043 27.3899 109.122 27.5513 109.228 27.6436C109.34 27.7358 109.468 27.7819 109.613 27.7819C109.818 27.7819 110.048 27.7259 110.305 27.6139L110.443 27.9599L107.735 29.0767H107.291V27.1593C106.513 28.0027 105.92 28.5331 105.511 28.7506C105.103 28.968 104.671 29.0767 104.217 29.0767C103.709 29.0767 103.268 28.9318 102.892 28.6418C102.523 28.3453 102.266 27.9664 102.121 27.5052C101.976 27.0439 101.904 26.3916 101.904 25.5482V21.5057C101.904 21.0774 101.858 20.7809 101.765 20.6161C101.673 20.4514 101.535 20.3262 101.35 20.2405C101.172 20.1483 100.846 20.1055 100.372 20.112V19.7463H103.545V25.8052C103.545 26.6486 103.69 27.2021 103.979 27.4657C104.276 27.7292 104.632 27.861 105.047 27.861C105.33 27.861 105.65 27.7721 106.006 27.5942C106.368 27.4162 106.796 27.0769 107.291 26.5761V21.4464C107.291 20.9324 107.195 20.5865 107.004 20.4086C106.819 20.2241 106.431 20.1252 105.838 20.112V19.7463H108.921ZM113.587 21.308C114.463 20.089 115.409 19.4795 116.423 19.4795C117.352 19.4795 118.163 19.8781 118.855 20.6754C119.547 21.4661 119.893 22.5501 119.893 23.9272C119.893 25.535 119.359 26.8298 118.291 27.8116C117.375 28.655 116.354 29.0767 115.227 29.0767C114.7 29.0767 114.163 28.9812 113.616 28.7901C113.076 28.599 112.522 28.3124 111.956 27.9302V18.5504C111.956 17.5225 111.929 16.8899 111.877 16.6527C111.831 16.4155 111.755 16.254 111.649 16.1684C111.544 16.0827 111.412 16.0399 111.254 16.0399C111.069 16.0399 110.839 16.0926 110.562 16.198L110.424 15.8521L113.142 14.7451H113.587V21.308ZM113.587 21.9406V27.3569C113.923 27.6864 114.269 27.9368 114.624 28.1081C114.987 28.2728 115.356 28.3552 115.731 28.3552C116.331 28.3552 116.888 28.0257 117.402 27.3668C117.922 26.7079 118.183 25.7492 118.183 24.4906C118.183 23.3309 117.922 22.4413 117.402 21.822C116.888 21.196 116.301 20.883 115.642 20.883C115.293 20.883 114.944 20.9719 114.595 21.1499C114.331 21.2816 113.995 21.5452 113.587 21.9406ZM122.749 23.1563C122.742 24.5005 123.069 25.5548 123.727 26.3191C124.386 27.0835 125.161 27.4657 126.05 27.4657C126.643 27.4657 127.157 27.3042 127.592 26.9814C128.034 26.6519 128.403 26.0918 128.699 25.3011L129.005 25.4988C128.867 26.4015 128.465 27.2252 127.8 27.9697C127.134 28.7077 126.301 29.0767 125.299 29.0767C124.212 29.0767 123.279 28.655 122.502 27.8116C121.731 26.9616 121.345 25.8216 121.345 24.3918C121.345 22.8433 121.741 21.6375 122.531 20.7743C123.329 19.9045 124.327 19.4696 125.526 19.4696C126.541 19.4696 127.375 19.8056 128.027 20.4777C128.679 21.1433 129.005 22.0361 129.005 23.1563H122.749ZM122.749 22.583H126.94C126.907 22.0032 126.838 21.5946 126.732 21.3574C126.567 20.9884 126.32 20.6985 125.991 20.4876C125.668 20.2768 125.329 20.1713 124.973 20.1713C124.426 20.1713 123.935 20.3855 123.5 20.8138C123.072 21.2355 122.821 21.8253 122.749 22.583Z" fill="white"/>
<defs>
<radialGradient id="paint0_radial_3_35" cx="0" cy="0" r="1" gradientUnits="userSpaceOnUse" gradientTransform="translate(22.7059 22.5844) rotate(90) scale(17.1844 15.9559)">
<stop stop-color="#C9AD7F"/>
<stop offset="0.5" stop-color="#E0D2AE"/>
<stop offset="1" stop-color="white"/>
</radialGradient>
</defs>
</svg>
