<svg width="90" height="90" viewBox="0 0 90 90" fill="none" xmlns="http://www.w3.org/2000/svg">
<path d="M48.4713 3.56927C60.7535 15.6788 67.3551 30.1831 67.3551 45.0585C67.3551 59.9338 60.7535 74.4381 48.4713 86.5477M12.6429 71.4032C22.087 64.6656 33.3988 61.0442 45 61.0442C56.6012 61.0442 67.913 64.6656 77.3571 71.4032M42.251 3.17005C29.8838 15.3635 23.2364 29.9683 23.2364 44.9468C23.2364 59.9252 29.8838 74.53 42.251 86.7235M45 3.21429V86.7857M86.7857 45H3.21429M12.6429 19.8578C22.087 26.5954 33.3988 30.2168 45 30.2168C56.6012 30.2168 67.913 26.5954 77.3571 19.8578M44.7857 3.21429C33.7222 3.27102 23.1327 7.7131 15.3396 15.5664C7.54655 23.4196 3.18606 34.0429 3.21443 45.1066C3.2428 56.1703 7.65771 66.7711 15.491 74.5843C23.3242 82.3975 33.9363 86.7852 45 86.7852C56.0637 86.7852 66.6758 82.3975 74.5091 74.5843C82.3423 66.7711 86.7572 56.1703 86.7856 45.1066C86.8139 34.0429 82.4535 23.4196 74.6604 15.5664C66.8673 7.7131 56.2778 3.27102 45.2143 3.21429H44.7857Z" stroke="white" stroke-width="2.87081"/>
</svg>
